<svg width="81" height="82" viewBox="0 0 81 82" fill="none" xmlns="http://www.w3.org/2000/svg">
<path d="M0.999999 36.4464C0.999999 7.25629 9.25629 6 38.4464 6H43.5536C72.7437 6 81 7.25629 81 36.4464V41.5536C81 72.5 75.5 82 43.5536 82H38.4464C8 82 -1.13994e-06 71.7437 0.999999 41.5536V36.4464Z" fill="#0284C7"/>
<path d="M1 37.312C1 6.58557 7.58557 0 38.312 0H43.688C74.4144 0 81 6.58557 81 37.312V42.688C81 73.4144 74.4144 80 43.688 80H38.312C7.58557 80 1 73.4144 1 42.688V37.312Z" fill="#66E3FF"/>
<g filter="url(#filter0_d_2_16)">
<path d="M37.6665 43.3222C37.6465 42.8461 37.4992 42.3841 37.2401 41.9841C36.981 41.5842 36.6194 41.261 36.193 41.0482L28.6342 37.2766C28.506 37.2087 28.4034 37.1008 28.342 36.9693C28.2807 36.8379 28.2639 36.69 28.2942 36.5481C28.3245 36.4063 28.4003 36.2781 28.51 36.1832C28.6197 36.0883 28.7574 36.0318 28.9021 36.0222L37.3426 35.667C37.8185 35.647 38.2804 35.5 38.6803 35.2411C39.0801 34.9822 39.4033 34.6209 39.6163 34.1948L43.388 26.636C43.4556 26.5072 43.5635 26.404 43.6952 26.3422C43.8269 26.2804 43.9753 26.2635 44.1175 26.2938C44.2598 26.3242 44.3883 26.4004 44.4832 26.5106C44.5782 26.6208 44.6346 26.759 44.6436 26.9042L44.9962 35.3441C45.0162 35.8202 45.1635 36.2823 45.4226 36.6822C45.6817 37.0821 46.0433 37.4053 46.4697 37.6181L54.0288 41.3885C54.1583 41.4558 54.2621 41.5638 54.3243 41.6957C54.3865 41.8277 54.4036 41.9765 54.3732 42.1192C54.3427 42.2619 54.2662 42.3907 54.1555 42.4857C54.0448 42.5808 53.906 42.6369 53.7603 42.6455L45.3204 42.9981C44.8443 43.0181 44.3822 43.1653 43.9823 43.4244C43.5824 43.6836 43.2592 44.0451 43.0464 44.4715L39.2747 52.0304C39.2071 52.1592 39.0992 52.2624 38.9675 52.3241C38.8358 52.3859 38.6874 52.4029 38.5452 52.3725C38.4029 52.3421 38.2744 52.266 38.1795 52.1558C38.0845 52.0456 38.0281 51.9073 38.0191 51.7621L37.6665 43.3222Z" fill="white" stroke="black" stroke-width="2" stroke-linecap="round" stroke-linejoin="round"/>
<path d="M54.2696 29.8263L53.1554 35.042" stroke="black" stroke-width="2" stroke-linecap="round" stroke-linejoin="round"/>
<path d="M56.3203 32.9912L51.1047 31.8771" stroke="black" stroke-width="2" stroke-linecap="round" stroke-linejoin="round"/>
<path d="M29.5073 43.6244L28.9502 46.2322" stroke="black" stroke-width="2" stroke-linecap="round" stroke-linejoin="round"/>
<path d="M30.5327 45.2068L27.9249 44.6497" stroke="black" stroke-width="2" stroke-linecap="round" stroke-linejoin="round"/>
</g>
<defs>
<filter id="filter0_d_2_16" x="22.9246" y="25.2791" width="38.3959" height="36.1081" filterUnits="userSpaceOnUse" color-interpolation-filters="sRGB">
<feFlood flood-opacity="0" result="BackgroundImageFix"/>
<feColorMatrix in="SourceAlpha" type="matrix" values="0 0 0 0 0 0 0 0 0 0 0 0 0 0 0 0 0 0 127 0" result="hardAlpha"/>
<feOffset dy="4"/>
<feGaussianBlur stdDeviation="2"/>
<feComposite in2="hardAlpha" operator="out"/>
<feColorMatrix type="matrix" values="0 0 0 0 0.00784314 0 0 0 0 0.517647 0 0 0 0 0.780392 0 0 0 0.76 0"/>
<feBlend mode="normal" in2="BackgroundImageFix" result="effect1_dropShadow_2_16"/>
<feBlend mode="normal" in="SourceGraphic" in2="effect1_dropShadow_2_16" result="shape"/>
</filter>
</defs>
</svg>
